<svg width="416" height="153" viewBox="0 0 416 153" fill="none" xmlns="http://www.w3.org/2000/svg">
<path d="M18.125 146H15.1094L3.65625 128.469V146H0.640625V123.25H3.65625L15.1406 140.859V123.25H18.125V146Z" fill="black"/>
<path d="M33.4375 144.328C32.3125 145.651 30.6615 146.312 28.4844 146.312C26.6823 146.312 25.3073 145.792 24.3594 144.75C23.4219 143.698 22.9479 142.146 22.9375 140.094V129.094H25.8281V140.016C25.8281 142.578 26.8698 143.859 28.9531 143.859C31.1615 143.859 32.6302 143.036 33.3594 141.391V129.094H36.25V146H33.5L33.4375 144.328Z" fill="black"/>
<path d="M44.5781 125V129.094H47.7344V131.328H44.5781V141.812C44.5781 142.49 44.7188 143 45 143.344C45.2812 143.677 45.7604 143.844 46.4375 143.844C46.7708 143.844 47.2292 143.781 47.8125 143.656V146C47.0521 146.208 46.3125 146.312 45.5938 146.312C44.3021 146.312 43.3281 145.922 42.6719 145.141C42.0156 144.359 41.6875 143.25 41.6875 141.812V131.328H38.6094V129.094H41.6875V125H44.5781Z" fill="black"/>
<path d="M53.8438 143.641H63.7344V146H50.3125V143.875L59.6406 131.484H50.4531V129.094H63.2656V131.141L53.8438 143.641Z" fill="black"/>
<path d="M73.7656 146.312C71.474 146.312 69.6094 145.562 68.1719 144.062C66.7344 142.552 66.0156 140.536 66.0156 138.016V137.484C66.0156 135.807 66.3333 134.312 66.9688 133C67.6146 131.677 68.5104 130.646 69.6562 129.906C70.8125 129.156 72.0625 128.781 73.4062 128.781C75.6042 128.781 77.3125 129.505 78.5312 130.953C79.75 132.401 80.3594 134.474 80.3594 137.172V138.375H68.9062C68.9479 140.042 69.4323 141.391 70.3594 142.422C71.2969 143.443 72.4844 143.953 73.9219 143.953C74.9427 143.953 75.8073 143.745 76.5156 143.328C77.224 142.911 77.8438 142.359 78.375 141.672L80.1406 143.047C78.724 145.224 76.599 146.312 73.7656 146.312ZM73.4062 131.156C72.2396 131.156 71.2604 131.583 70.4688 132.438C69.6771 133.281 69.1875 134.469 69 136H77.4688V135.781C77.3854 134.312 76.9896 133.177 76.2812 132.375C75.5729 131.562 74.6146 131.156 73.4062 131.156Z" fill="black"/>
<path d="M91.8906 131.688C91.4531 131.615 90.9792 131.578 90.4688 131.578C88.5729 131.578 87.2865 132.385 86.6094 134V146H83.7188V129.094H86.5312L86.5781 131.047C87.526 129.536 88.8698 128.781 90.6094 128.781C91.1719 128.781 91.599 128.854 91.8906 129V131.688Z" fill="black"/>
<path d="M97.2969 129.094L97.3906 131.219C98.6823 129.594 100.37 128.781 102.453 128.781C106.026 128.781 107.828 130.797 107.859 134.828V146H104.969V134.812C104.958 133.594 104.677 132.693 104.125 132.109C103.583 131.526 102.734 131.234 101.578 131.234C100.641 131.234 99.8177 131.484 99.1094 131.984C98.401 132.484 97.849 133.141 97.4531 133.953V146H94.5625V129.094H97.2969Z" fill="black"/>
<path d="M122.656 146C122.49 145.667 122.354 145.073 122.25 144.219C120.906 145.615 119.302 146.312 117.438 146.312C115.771 146.312 114.401 145.844 113.328 144.906C112.266 143.958 111.734 142.76 111.734 141.312C111.734 139.552 112.401 138.188 113.734 137.219C115.078 136.24 116.964 135.75 119.391 135.75H122.203V134.422C122.203 133.411 121.901 132.609 121.297 132.016C120.693 131.411 119.802 131.109 118.625 131.109C117.594 131.109 116.729 131.37 116.031 131.891C115.333 132.411 114.984 133.042 114.984 133.781H112.078C112.078 132.938 112.375 132.125 112.969 131.344C113.573 130.552 114.385 129.927 115.406 129.469C116.438 129.01 117.568 128.781 118.797 128.781C120.745 128.781 122.271 129.271 123.375 130.25C124.479 131.219 125.052 132.557 125.094 134.266V142.047C125.094 143.599 125.292 144.833 125.688 145.75V146H122.656ZM117.859 143.797C118.766 143.797 119.625 143.562 120.438 143.094C121.25 142.625 121.839 142.016 122.203 141.266V137.797H119.938C116.396 137.797 114.625 138.833 114.625 140.906C114.625 141.812 114.927 142.521 115.531 143.031C116.135 143.542 116.911 143.797 117.859 143.797Z" fill="black"/>
<path d="M132.344 129.094L132.422 130.969C133.661 129.51 135.333 128.781 137.438 128.781C139.802 128.781 141.411 129.688 142.266 131.5C142.828 130.688 143.557 130.031 144.453 129.531C145.359 129.031 146.427 128.781 147.656 128.781C151.365 128.781 153.25 130.745 153.312 134.672V146H150.422V134.844C150.422 133.635 150.146 132.734 149.594 132.141C149.042 131.536 148.115 131.234 146.812 131.234C145.74 131.234 144.849 131.557 144.141 132.203C143.432 132.839 143.021 133.698 142.906 134.781V146H140V134.922C140 132.464 138.797 131.234 136.391 131.234C134.495 131.234 133.198 132.042 132.5 133.656V146H129.609V129.094H132.344Z" fill="black"/>
<path d="M164.703 146.312C162.411 146.312 160.547 145.562 159.109 144.062C157.672 142.552 156.953 140.536 156.953 138.016V137.484C156.953 135.807 157.271 134.312 157.906 133C158.552 131.677 159.448 130.646 160.594 129.906C161.75 129.156 163 128.781 164.344 128.781C166.542 128.781 168.25 129.505 169.469 130.953C170.688 132.401 171.297 134.474 171.297 137.172V138.375H159.844C159.885 140.042 160.37 141.391 161.297 142.422C162.234 143.443 163.422 143.953 164.859 143.953C165.88 143.953 166.745 143.745 167.453 143.328C168.161 142.911 168.781 142.359 169.312 141.672L171.078 143.047C169.661 145.224 167.536 146.312 164.703 146.312ZM164.344 131.156C163.177 131.156 162.198 131.583 161.406 132.438C160.615 133.281 160.125 134.469 159.938 136H168.406V135.781C168.323 134.312 167.927 133.177 167.219 132.375C166.51 131.562 165.552 131.156 164.344 131.156Z" fill="black"/>
<path d="M189.609 146.312C187.318 146.312 185.453 145.562 184.016 144.062C182.578 142.552 181.859 140.536 181.859 138.016V137.484C181.859 135.807 182.177 134.312 182.812 133C183.458 131.677 184.354 130.646 185.5 129.906C186.656 129.156 187.906 128.781 189.25 128.781C191.448 128.781 193.156 129.505 194.375 130.953C195.594 132.401 196.203 134.474 196.203 137.172V138.375H184.75C184.792 140.042 185.276 141.391 186.203 142.422C187.141 143.443 188.328 143.953 189.766 143.953C190.786 143.953 191.651 143.745 192.359 143.328C193.068 142.911 193.688 142.359 194.219 141.672L195.984 143.047C194.568 145.224 192.443 146.312 189.609 146.312ZM189.25 131.156C188.083 131.156 187.104 131.583 186.312 132.438C185.521 133.281 185.031 134.469 184.844 136H193.312V135.781C193.229 134.312 192.833 133.177 192.125 132.375C191.417 131.562 190.458 131.156 189.25 131.156Z" fill="black"/>
<path d="M202.703 146H199.812V129.094H202.703V146ZM199.578 124.609C199.578 124.141 199.719 123.745 200 123.422C200.292 123.099 200.719 122.938 201.281 122.938C201.844 122.938 202.271 123.099 202.562 123.422C202.854 123.745 203 124.141 203 124.609C203 125.078 202.854 125.469 202.562 125.781C202.271 126.094 201.844 126.25 201.281 126.25C200.719 126.25 200.292 126.094 200 125.781C199.719 125.469 199.578 125.078 199.578 124.609Z" fill="black"/>
<path d="M210.078 129.094L210.172 131.219C211.464 129.594 213.151 128.781 215.234 128.781C218.807 128.781 220.609 130.797 220.641 134.828V146H217.75V134.812C217.74 133.594 217.458 132.693 216.906 132.109C216.365 131.526 215.516 131.234 214.359 131.234C213.422 131.234 212.599 131.484 211.891 131.984C211.182 132.484 210.63 133.141 210.234 133.953V146H207.344V129.094H210.078Z" fill="black"/>
<path d="M224.312 137.406C224.312 134.771 224.922 132.677 226.141 131.125C227.359 129.562 228.974 128.781 230.984 128.781C233.047 128.781 234.656 129.51 235.812 130.969L235.953 129.094H238.594V145.594C238.594 147.781 237.943 149.505 236.641 150.766C235.349 152.026 233.609 152.656 231.422 152.656C230.203 152.656 229.01 152.396 227.844 151.875C226.677 151.354 225.786 150.641 225.172 149.734L226.672 148C227.911 149.531 229.427 150.297 231.219 150.297C232.625 150.297 233.719 149.901 234.5 149.109C235.292 148.318 235.688 147.203 235.688 145.766V144.312C234.531 145.646 232.953 146.312 230.953 146.312C228.974 146.312 227.37 145.516 226.141 143.922C224.922 142.328 224.312 140.156 224.312 137.406ZM227.219 137.734C227.219 139.641 227.609 141.141 228.391 142.234C229.172 143.318 230.266 143.859 231.672 143.859C233.495 143.859 234.833 143.031 235.688 141.375V133.656C234.802 132.042 233.474 131.234 231.703 131.234C230.297 131.234 229.198 131.781 228.406 132.875C227.615 133.969 227.219 135.589 227.219 137.734Z" fill="black"/>
<path d="M249.984 146.312C247.693 146.312 245.828 145.562 244.391 144.062C242.953 142.552 242.234 140.536 242.234 138.016V137.484C242.234 135.807 242.552 134.312 243.188 133C243.833 131.677 244.729 130.646 245.875 129.906C247.031 129.156 248.281 128.781 249.625 128.781C251.823 128.781 253.531 129.505 254.75 130.953C255.969 132.401 256.578 134.474 256.578 137.172V138.375H245.125C245.167 140.042 245.651 141.391 246.578 142.422C247.516 143.443 248.703 143.953 250.141 143.953C251.161 143.953 252.026 143.745 252.734 143.328C253.443 142.911 254.062 142.359 254.594 141.672L256.359 143.047C254.943 145.224 252.818 146.312 249.984 146.312ZM249.625 131.156C248.458 131.156 247.479 131.583 246.688 132.438C245.896 133.281 245.406 134.469 245.219 136H253.688V135.781C253.604 134.312 253.208 133.177 252.5 132.375C251.792 131.562 250.833 131.156 249.625 131.156Z" fill="black"/>
<path d="M274.25 137.734C274.25 140.318 273.656 142.396 272.469 143.969C271.281 145.531 269.688 146.312 267.688 146.312C265.552 146.312 263.901 145.557 262.734 144.047L262.594 146H259.938V122H262.828V130.953C263.995 129.505 265.604 128.781 267.656 128.781C269.708 128.781 271.318 129.557 272.484 131.109C273.661 132.661 274.25 134.786 274.25 137.484V137.734ZM271.359 137.406C271.359 135.438 270.979 133.917 270.219 132.844C269.458 131.771 268.365 131.234 266.938 131.234C265.031 131.234 263.661 132.12 262.828 133.891V141.203C263.714 142.974 265.094 143.859 266.969 143.859C268.354 143.859 269.432 143.323 270.203 142.25C270.974 141.177 271.359 139.562 271.359 137.406Z" fill="black"/>
<path d="M284.922 146.312C282.63 146.312 280.766 145.562 279.328 144.062C277.891 142.552 277.172 140.536 277.172 138.016V137.484C277.172 135.807 277.49 134.312 278.125 133C278.771 131.677 279.667 130.646 280.812 129.906C281.969 129.156 283.219 128.781 284.562 128.781C286.76 128.781 288.469 129.505 289.688 130.953C290.906 132.401 291.516 134.474 291.516 137.172V138.375H280.062C280.104 140.042 280.589 141.391 281.516 142.422C282.453 143.443 283.641 143.953 285.078 143.953C286.099 143.953 286.964 143.745 287.672 143.328C288.38 142.911 289 142.359 289.531 141.672L291.297 143.047C289.88 145.224 287.755 146.312 284.922 146.312ZM284.562 131.156C283.396 131.156 282.417 131.583 281.625 132.438C280.833 133.281 280.344 134.469 280.156 136H288.625V135.781C288.542 134.312 288.146 133.177 287.438 132.375C286.729 131.562 285.771 131.156 284.562 131.156Z" fill="black"/>
<path d="M297.609 129.094L297.703 131.219C298.995 129.594 300.682 128.781 302.766 128.781C306.339 128.781 308.141 130.797 308.172 134.828V146H305.281V134.812C305.271 133.594 304.99 132.693 304.438 132.109C303.896 131.526 303.047 131.234 301.891 131.234C300.953 131.234 300.13 131.484 299.422 131.984C298.714 132.484 298.161 133.141 297.766 133.953V146H294.875V129.094H297.609Z" fill="black"/>
<path fill-rule="evenodd" clip-rule="evenodd" d="M392.152 19.1901L405 0L415.195 20.7218L405.52 20.0787C400.207 54.8727 378.778 95.8493 313.027 135.216L310.973 131.784C375.67 93.0483 396.324 53.1597 401.513 19.8124L392.152 19.1901Z" fill="black"/>
</svg>
